<svg xmlns="http://www.w3.org/2000/svg" viewBox="0 0 2000 2000" width="2000" height="2000"><path d="M1000,0C448,0,0,448,0,1000S448,2000,1000,2000s1000-448,1000-1000S1552,0,1000,0Z" fill="#000e26"/><g fill="#fff"><path d="M1142.43,927.52c0-102.94-61.84-137.39-122.8-137.39H882.23v440.65h79.52V1071.09c9.52,0,39.57,0,41.45-.09l68.21,159.78h87.8l-79.35-177.68c38.68-20.86,62.57-60.92,62.57-125.58M997.52,992.9H961.74V867.44h40.2c28.72,0,63.17,10.61,63.17,63.17s-40.64,62.29-67.59,62.29"/><path d="M776.21,994.89c16.57-2,56.66-30.81,58.32-84.15,1.32-67.59-28-120.6-114.39-120.6H588v440.65H718.56c47.71,0,120.6-25.85,131.86-107.35S818.62,1006.82,776.21,994.89ZM666,867.44h41.53c32.25,0,49.7,13.25,49.7,51S727,967,707.09,967H666V867.44Zm48.84,284.94H666V1038h49.37c38.34,0,59.09,15.22,59.09,58.61s-36,55.77-59.63,55.77h0Z"/><path d="m1463.04 790.13h-85.62l-50.45 155.99-55.75-155.99h-88.29l90.94 214.39-96.25 227.02h84.3l57.08-159.97 62.39 159.97h87.63l-96.25-220.71 90.27-220.7"/></g><path d="M1748.42,1162.87h0l88.46,51.06A869,869,0,0,0,1838,790.8l-89.6,51.73S1686.65,777,1614.7,652.36s-97.84-210.87-97.84-210.87l92.49-53.4a862.93,862.93,0,0,0-369.9-218V281.33S1151.83,302,1007.93,302s-231.54-20.71-231.54-20.71V165.7A862.41,862.41,0,0,0,396.53,382.33L499,441.48s-25.89,86.26-97.84,210.87-133.7,190.17-133.7,190.17L164,782.78a868.93,868.93,0,0,0,1.26,439.09l102.21-59s61.75,65.56,133.7,190.17S499,1563.9,499,1563.9L400,1621a862.29,862.29,0,0,0,376.4,213.25V1724.07s87.65-20.71,231.54-20.71,231.54,20.71,231.54,20.71v105.86A862.68,862.68,0,0,0,1605.9,1615.3l-89-51.39s25.89-86.25,97.84-210.87S1748.41,1162.87,1748.42,1162.87ZM1000,1669.59c-369.8,0-669.58-299.78-669.58-669.58S630.19,330.43,1000,330.43,1669.57,630.21,1669.57,1000,1369.79,1669.59,1000,1669.59Z" fill="#2fa5ff"/></svg>