<?xml version="1.0" encoding="UTF-8" standalone="no"?>
<!-- Generator: Adobe Illustrator 16.0.0, SVG Export Plug-In . SVG Version: 6.00 Build 0)  -->

<svg
   xmlns:dc="http://purl.org/dc/elements/1.1/"
   xmlns:cc="http://creativecommons.org/ns#"
   xmlns:rdf="http://www.w3.org/1999/02/22-rdf-syntax-ns#"
   xmlns:svg="http://www.w3.org/2000/svg"
   xmlns="http://www.w3.org/2000/svg"
   xmlns:sodipodi="http://sodipodi.sourceforge.net/DTD/sodipodi-0.dtd"
   xmlns:inkscape="http://www.inkscape.org/namespaces/inkscape"
   version="1.1"
   id="Layer_1"
   x="0px"
   y="0px"
   width="697.25702"
   height="697.25598"
   viewBox="0 0 697.25702 697.25598"
   enable-background="new 0 0 1920 1080"
   xml:space="preserve"
   sodipodi:docname="vtc.svg"
   inkscape:version="0.92.1 r15371"><metadata
     id="metadata34"><rdf:RDF><cc:Work
         rdf:about=""><dc:format>image/svg+xml</dc:format><dc:type
           rdf:resource="http://purl.org/dc/dcmitype/StillImage" /><dc:title></dc:title></cc:Work></rdf:RDF></metadata><defs
     id="defs32" /><sodipodi:namedview
     pagecolor="#ffffff"
     bordercolor="#666666"
     borderopacity="1"
     objecttolerance="10"
     gridtolerance="10"
     guidetolerance="10"
     inkscape:pageopacity="0"
     inkscape:pageshadow="2"
     inkscape:window-width="756"
     inkscape:window-height="480"
     id="namedview30"
     showgrid="false"
     fit-margin-top="0"
     fit-margin-left="0"
     fit-margin-right="0"
     fit-margin-bottom="0"
     inkscape:zoom="0.18541667"
     inkscape:cx="368.773"
     inkscape:cy="343.537"
     inkscape:window-x="2445"
     inkscape:window-y="190"
     inkscape:window-maximized="0"
     inkscape:current-layer="Layer_1" /><g
     id="g27"
     transform="translate(-591.227,-186.281)"><linearGradient
       id="SVGID_1_"
       gradientUnits="userSpaceOnUse"
       x1="591.22711"
       y1="534.90918"
       x2="1288.4844"
       y2="534.90918"><stop
         offset="0"
         style="stop-color:#18653A"
         id="stop2" /><stop
         offset="1"
         style="stop-color:#07894C"
         id="stop4" /></linearGradient><path
       d="m 1288.484,534.911 c 0,192.54 -156.086,348.626 -348.626,348.626 -192.543,0 -348.631,-156.086 -348.631,-348.626 0,-192.545 156.087,-348.63 348.631,-348.63 192.54,0 348.626,156.085 348.626,348.63 z"
       id="path7"
       inkscape:connector-curvature="0"
       style="fill:url(#SVGID_1_)" /><path
       d="m 1288.484,534.911 c 0,192.54 -156.086,348.626 -348.626,348.626 -192.543,0 -348.631,-156.086 -348.631,-348.626 0,-192.545 156.087,-348.63 348.631,-348.63 192.54,0 348.626,156.085 348.626,348.63 z"
       id="path9"
       inkscape:connector-curvature="0"
       style="fill:#1c5c34" /><path
       d="M 937.768,623.424 845.729,503.292 694.548,503.174 917.474,798.251 c 7.344,11.012 22.224,13.982 33.233,6.636 0,0 0.49,-0.771 1.366,-2.16 2.016,-1.562 3.822,-3.469 5.311,-5.714 l 294.825,-417.126 c 0,0 -4.656,-16.625 -31.553,-52.578 -26.896,-35.953 -42.271,-46.652 -42.271,-46.652 z"
       id="path11"
       inkscape:connector-curvature="0"
       style="fill:#ffffff" /><linearGradient
       id="SVGID_2_"
       gradientUnits="userSpaceOnUse"
       x1="834.10352"
       y1="637.08978"
       x2="935.961"
       y2="686.13147"
       gradientTransform="matrix(0.9806,0.1958,-0.1958,0.9806,128.1904,-188.0225)"><stop
         offset="0.6566"
         style="stop-color:#FFFFFF"
         id="stop13" /><stop
         offset="1"
         style="stop-color:#BCBEC0"
         id="stop15" /></linearGradient><polygon
       points="878.747,546.719 937.931,623.401 865.315,729.636 794.627,635.597 "
       id="polygon18"
       style="fill:url(#SVGID_2_)" /><linearGradient
       id="SVGID_3_"
       gradientUnits="userSpaceOnUse"
       x1="654.31842"
       y1="557.49707"
       x2="717.88263"
       y2="525.10938"><stop
         offset="0.6566"
         style="stop-color:#FFFFFF"
         id="stop20" /><stop
         offset="1"
         style="stop-color:#BCBEC0"
         id="stop22" /></linearGradient><polygon
       points="731.632,552.095 694.548,503.009 651.565,552.095 "
       id="polygon25"
       style="fill:url(#SVGID_3_)" /></g></svg>